<svg xmlns="http://www.w3.org/2000/svg" width="32" height="32" id="link"><g color="#000" font-family="sans-serif" font-weight="400"><path style="line-height:normal;text-indent:0;text-align:start;text-decoration-line:none;text-decoration-style:solid;text-decoration-color:#000;text-transform:none;block-progression:tb;isolation:auto;mix-blend-mode:normal" fill="#f05542" fill-rule="evenodd" d="M40.5 1356.361v2.256h1v-2.256h-1zm0 23.3v2.255h1v-2.256h-1zm10.713-8.282-.26.967 2.16.582.262-.965-2.162-.584zm-22.326-6.03-.262.966 2.162.583.26-.964-2.16-.584zm16.963 13.126-.909.418.942 2.044.908-.417-.941-2.045zm-9.733-21.135-.908.418.941 2.047.909-.42-.942-2.045zm12.82 18.656-.689.725 1.627 1.549.69-.725-1.627-1.549zm-16.812-15.988-.69.724 1.628 1.55.689-.725-1.627-1.55z" overflow="visible" transform="translate(-25 -1353.362)"></path><path style="line-height:normal;text-indent:0;text-align:start;text-decoration-line:none;text-decoration-style:solid;text-decoration-color:#000;text-transform:none;block-progression:tb;isolation:auto;mix-blend-mode:normal" fill="#2b4255" d="M36.016 1366.568a5.312 5.312 0 0 0-2.534.727l-3.816 2.22a.5.5 0 0 0 .502.866l3.816-2.223a4.31 4.31 0 0 1 2.059-.59c.655-.018 1.238.32 1.832.59l-1.406.819c-.644-.066-1.318-.05-1.926.304l-5.695 3.315c-1.51.879-2.055 2.807-1.196 4.306.86 1.5 2.798 1.993 4.309 1.114l5.695-3.317c.61-.354.96-.933 1.225-1.527l1.445-.84c-.124 1.367-.72 2.68-1.998 3.424l-5.81 3.38c-2.093 1.218-4.726.51-5.936-1.603a4.387 4.387 0 0 1 1.592-5.992.5.5 0 0 0-.504-.865c-2.558 1.489-3.43 4.78-1.955 7.355a5.325 5.325 0 0 0 7.305 1.971l5.812-3.383a5.389 5.389 0 0 0 2.637-5.303.5.5 0 0 0-.748-.373l-2.344 1.364a.5.5 0 0 0-.225.28 2.208 2.208 0 0 1-1 1.249l-5.695 3.316c-1.056.615-2.349.277-2.936-.748-.586-1.024-.228-2.33.829-2.945l5.697-3.314a2.17 2.17 0 0 1 1.566-.248.5.5 0 0 0 .358-.055l2.345-1.366a.5.5 0 0 0 .051-.832 5.319 5.319 0 0 0-3.351-1.076z" overflow="visible" transform="translate(-25 -1353.362)"></path><path style="line-height:normal;text-indent:0;text-align:start;text-decoration-line:none;text-decoration-style:solid;text-decoration-color:#000;text-transform:none;block-progression:tb;isolation:auto;mix-blend-mode:normal" fill="#2b4255" d="M45.75 1364.395a2.54 2.54 0 0 0-1.88.275l-8.085 4.705c-1.184.69-1.633 2.19-.965 3.357.669 1.167 2.193 1.528 3.377.838l8.082-4.703c1.184-.689 1.635-2.192.967-3.36a2.351 2.351 0 0 0-1.496-1.112zm-.242.959c.36.087.676.312.87.652.39.679.14 1.565-.6 1.996l-8.085 4.703c-.74.432-1.617.208-2.005-.47-.39-.68-.14-1.565.601-1.997l8.082-4.703a1.54 1.54 0 0 1 1.137-.182z" overflow="visible" transform="translate(-25 -1353.362)"></path><path style="line-height:normal;text-indent:0;text-align:start;text-decoration-line:none;text-decoration-style:solid;text-decoration-color:#000;text-transform:none;block-progression:tb;isolation:auto;mix-blend-mode:normal" fill="#2b4255" d="M51.512 1357.55a5.318 5.318 0 0 0-2.532.725l-5.812 3.383a5.389 5.389 0 0 0-2.637 5.303.5.5 0 0 0 .748.373l2.344-1.365a.5.5 0 0 0 .227-.28c.161-.506.497-.956.998-1.248l5.697-3.314c1.056-.615 2.349-.28 2.935.744.587 1.024.227 2.33-.83 2.945l-5.697 3.317c-.5.29-1.05.36-1.564.248a.5.5 0 0 0-.358.055l-2.347 1.365a.5.5 0 0 0-.051.832 5.312 5.312 0 0 0 5.885.35l5.812-3.381c2.558-1.489 3.43-4.778 1.955-7.354a5.335 5.335 0 0 0-4.771-2.697h-.002zm.027 1a4.323 4.323 0 0 1 3.879 2.194 4.387 4.387 0 0 1-1.592 5.992l-5.81 3.383c-1.28.745-2.706.609-3.942.031l1.461-.85c.643.065 1.314.05 1.922-.304l5.697-3.315c1.51-.879 2.053-2.807 1.194-4.306-.86-1.5-2.796-1.993-4.307-1.114l-5.697 3.315c-.61.355-.96.936-1.225 1.531l-1.445.84c.123-1.368.72-2.682 1.998-3.426l5.81-3.38a4.302 4.302 0 0 1 2.057-.59z" overflow="visible" transform="translate(-25 -1353.362)"></path></g></svg>